<svg height='80px' xmlns="http://www.w3.org/2000/svg">
  <svg width="270" height="68" viewBox="0 0 200 69" xmlns="http://www.w3.org/2000/svg" data-copyright="https://github.com/oubenruing/svg-text-animate" style="vertical-align: text-top; ">
    <g id="svgGroup" stroke-linecap="round" stroke="#000" fill="none" style="fill: rgb(0, 0, 0); stroke: rgb(255,255,255); stroke-width: 1px;">
      <path d="M31.89 24.96L31.89 24.96L31.89 25.77Q31.89 27.61 30.74 28.42L30.74 28.42Q29.92 29.04 28.36 29.58L28.36 29.58Q27.74 29.78 25.57 30.12L25.57 30.12Q24.14 30.19 23.39 30.53L23.39 30.53Q23.12 33.39 21.49 35.84L21.49 35.84L21.49 37.20Q21.01 39.98 20.40 41.28L20.40 41.28Q19.92 42.50 19.92 42.77L19.92 42.77Q19.31 46.38 18.36 48.08L18.36 48.08Q18.09 49.23 17.82 50.39L17.82 50.39Q16.52 56.17 14.76 57.94L14.76 57.94Q13.12 59.84 13.06 60.32L13.06 60.32Q12.99 60.59 13.26 60.59L13.26 60.59Q14.89 62.15 16.73 62.42L16.73 62.42L21.01 63.51Q21.01 65.35 18.43 65.96L18.43 65.96Q15.71 66.57 12.24 67.18L12.24 67.18Q11.63 66.91 10.61 66.91L10.61 66.91L9.86 68L8.50 67.18Q8.16 67.46 7.14 67.46L7.14 67.46Q5.24 67.46 5.03 66.64L5.03 66.64L2.11 65.89Q0.48 65.89 0.27 63.99L0.27 63.99Q1.09 62.70 2.92 62.70L2.92 62.70Q3.74 62.70 4.01 62.97L4.01 62.97Q7.07 61.47 9.32 60.86L9.32 60.86Q9.79 58.68 11.42 57.39L11.42 57.39Q11.15 56.92 11.15 56.03L11.15 56.03Q11.15 55.01 12.24 54.20L12.24 54.20Q11.97 53.92 11.97 53.65L11.97 53.65Q12.24 53.31 12.24 52.09L12.24 52.09L12.24 51.54Q12.44 51.20 12.72 50.39L12.72 50.39Q12.92 49.84 13.53 49.44L13.53 49.44L14.35 45.42Q15.10 44.88 15.30 43.79L15.30 43.79Q15.37 42.77 15.91 42.23L15.91 42.23L16.46 38.01Q17.27 37.20 17.54 36.38L17.54 36.38L17.54 35.36Q18.36 34.54 18.56 32.16L18.56 32.16Q18.56 31.35 17.82 31.35L17.82 31.35Q15.98 31.55 13.53 32.64L13.53 32.64Q12.17 32.64 10.54 31.82L10.54 31.82Q8.77 30.94 8.23 29.78L8.23 29.78Q8.43 27.06 10.88 27.06L10.88 27.06L13.80 27.06Q15.71 27.06 17 27.34L17 27.34Q19.11 27.34 19.52 26.79L19.52 26.79Q19.92 26.32 22.03 26.32L22.03 26.32Q22.30 26.32 22.44 26.45L22.44 26.45Q22.58 26.59 22.85 26.59L22.85 26.59Q23.87 26.59 24.68 25.77L24.68 25.77L28.15 24.96Q28.36 24.68 29.99 24.68L29.99 24.68Q31.42 24.68 31.89 24.96Z" style="stroke-dasharray: 156, 158; stroke-dashoffset: 157;">
        <animate attributeName="stroke-dashoffset" to="0" dur="500ms" calcMode="linear" repeatCount="1" fill="freeze" begin="0ms"></animate>
      </path>
    </g>
  </svg>
  <svg width="270" height="68.272" viewBox="-25 0 200 69.272" xmlns="http://www.w3.org/2000/svg" data-copyright="https://github.com/oubenruing/svg-text-animate" style="vertical-align: text-top; ">
    <g id="svgGroup" stroke-linecap="round" stroke="#000" fill="none" style="fill: rgb(0, 0, 0); stroke: rgb(255,255,255); stroke-width: 1px;">
      <path d="M21.01 44.34L21.01 44.34Q20.67 46.78 16.18 47.26L16.18 47.26L15.44 47.26Q14.01 48.08 12.31 48.82L12.31 48.82Q10.61 49.64 9.86 51.82L9.86 51.82Q9.86 53.92 12.10 55.62L12.10 55.62Q14.28 57.39 14.89 60.32L14.89 60.32Q14.89 61.06 14.82 61.81L14.82 61.81L14.62 62.56Q14.48 63.10 13.53 64.33L13.53 64.33L12.10 65.96Q11.29 66.91 10.06 67.46L10.06 67.46L9.59 67.46Q8.98 67.93 6.39 68.27L6.39 68.27Q5.44 68.27 4.28 67.86L4.28 67.86Q2.79 67.32 2.38 66.44L2.38 66.44Q2.58 64.46 4.76 63.24L4.76 63.24L5.37 62.76L6.12 62.15Q7.48 61.68 8.77 61.20L8.77 61.20Q10.88 60.32 10.88 59.50L10.88 59.50Q10.68 58.21 10.06 57.46L10.06 57.46Q9.66 56.92 8.77 56.44L8.77 56.44Q8.02 55.96 7.14 55.35L7.14 55.35Q6.53 54.94 5.58 53.11L5.58 53.11Q5.58 50.66 6.66 49.57L6.66 49.57Q8.64 47.74 9.32 47.26L9.32 47.26L11.42 46.24Q15.78 43.32 18.02 43.32L18.02 43.32Q20.20 43.32 21.01 44.34Z" style="stroke-dasharray: 82, 84; stroke-dashoffset: 83;">
        <animate attributeName="stroke-dashoffset" to="0" dur="500ms" calcMode="linear" repeatCount="1" fill="freeze" begin="200ms"></animate>
      </path>
    </g>
  </svg>
  <svg width="270" height="68.272" viewBox="-45 0 200 69.272" xmlns="http://www.w3.org/2000/svg" data-copyright="https://github.com/oubenruing/svg-text-animate" style="vertical-align: text-top; ">
    <g id="svgGroup" stroke-linecap="round" stroke="#000" fill="none" style="fill: rgb(0, 0, 0); stroke: rgb(255,255,255); stroke-width: 1px;">
      <path d="M21.01 44.34L21.01 44.34Q20.67 46.78 16.18 47.26L16.18 47.26L15.44 47.26Q14.01 48.08 12.31 48.82L12.31 48.82Q10.61 49.64 9.86 51.82L9.86 51.82Q9.86 53.92 12.10 55.62L12.10 55.62Q14.28 57.39 14.89 60.32L14.89 60.32Q14.89 61.06 14.82 61.81L14.82 61.81L14.62 62.56Q14.48 63.10 13.53 64.33L13.53 64.33L12.10 65.96Q11.29 66.91 10.06 67.46L10.06 67.46L9.59 67.46Q8.98 67.93 6.39 68.27L6.39 68.27Q5.44 68.27 4.28 67.86L4.28 67.86Q2.79 67.32 2.38 66.44L2.38 66.44Q2.58 64.46 4.76 63.24L4.76 63.24L5.37 62.76L6.12 62.15Q7.48 61.68 8.77 61.20L8.77 61.20Q10.88 60.32 10.88 59.50L10.88 59.50Q10.68 58.21 10.06 57.46L10.06 57.46Q9.66 56.92 8.77 56.44L8.77 56.44Q8.02 55.96 7.14 55.35L7.14 55.35Q6.53 54.94 5.58 53.11L5.58 53.11Q5.58 50.66 6.66 49.57L6.66 49.57Q8.64 47.74 9.32 47.26L9.32 47.26L11.42 46.24Q15.78 43.32 18.02 43.32L18.02 43.32Q20.20 43.32 21.01 44.34Z" style="stroke-dasharray: 82, 84; stroke-dashoffset: 83;">
        <animate attributeName="stroke-dashoffset" to="0" dur="500ms" calcMode="linear" repeatCount="1" fill="freeze" begin="400ms"></animate>
      </path>
    </g>
  </svg>
  <svg width="270" height="68" viewBox="-65 0 200 69" xmlns="http://www.w3.org/2000/svg" data-copyright="https://github.com/oubenruing/svg-text-animate" style="vertical-align: text-top; ">
    <g id="svgGroup" stroke-linecap="round" stroke="#000" fill="none" style="fill: rgb(0, 0, 0); stroke: rgb(255,255,255); stroke-width: 1px;">
      <path d="M29.24 43.32L29.24 43.32Q30.26 43.86 30.26 44.34L30.26 44.34L29.24 46.51L27.34 50.73Q26.59 52.36 26.59 53.11L26.59 53.11Q26.45 54.33 26.32 55.49L26.32 55.49Q26.86 57.53 27.88 58.41L27.88 58.41L29.72 60.59Q30.19 62.42 29.10 63.85L29.10 63.85L28.42 64.53Q27.81 64.74 27.20 64.87L27.20 64.87L25.50 64.80Q24.41 64.19 24.00 63.38L24.00 63.38Q23.53 62.56 23.12 62.15L23.12 62.15L23.12 61.06Q23.12 60.04 23.39 59.23L23.39 59.23Q23.66 57.87 23.66 55.49L23.66 55.49Q21.42 56.17 19.99 57.80L19.99 57.80L19.65 58.41L18.84 59.43Q18.43 60.59 17.95 61.06L17.95 61.06Q17.34 61.34 16.80 61.88L16.80 61.88Q16.73 62.02 16.39 62.36L16.39 62.36L15.98 62.76L15.64 63.24L14.35 64.80L11.83 66.30Q11.02 66.84 10.06 67.73L10.06 67.73Q9.79 68 9.45 68L9.45 68L8.77 68Q5.78 67.66 4.76 65.62L4.76 65.62L4.49 65.08L4.15 64.53Q4.01 64.26 4.01 63.99L4.01 63.99Q4.15 62.56 4.22 61.06L4.22 61.06Q4.22 58.14 4.01 57.94L4.01 57.94Q4.01 54.26 6.60 48.96L6.60 48.96Q7.62 46.92 8.64 45.49L8.64 45.49Q9.18 44.61 9.59 44.06L9.59 44.06Q10.61 44.54 11.42 46.99L11.42 46.99L10.40 48.82Q9.79 49.84 9.38 51.27L9.38 51.27L9.11 52.22Q8.91 53.11 8.64 53.92L8.64 53.92Q8.50 54.88 8.50 56.30L8.50 56.30L8.50 57.66Q8.43 58.68 8.30 59.70L8.30 59.70Q8.43 60.93 9.25 61.06L9.25 61.06Q10.00 60.86 10.61 60.59L10.61 60.59L11.97 60.32Q12.17 60.04 12.44 60.04L12.44 60.04Q12.99 59.91 13.26 59.77L13.26 59.77L14.62 59.23L16.18 57.39Q18.43 54.67 18.84 54.26L18.84 54.26Q20.06 53.18 21.49 52.09L21.49 52.09L22.03 51Q23.39 48.28 24.00 47.80L24.00 47.80Q24.14 47.67 24.41 46.78L24.41 46.78L24.68 46.24Q24.82 45.83 24.96 45.42L24.96 45.42L25.50 44.61Q26.38 44.13 27.27 43.59L27.27 43.59L27.54 43.45Q27.88 43.32 29.24 43.32Z" style="stroke-dasharray: 132, 134; stroke-dashoffset: 133;">
        <animate attributeName="stroke-dashoffset" to="0" dur="500ms" calcMode="linear" repeatCount="1" fill="freeze" begin="600ms"></animate>
      </path>
    </g>
  </svg>
  <svg width="270" height="67.728" viewBox="-95 0 200 68.728" xmlns="http://www.w3.org/2000/svg" data-copyright="https://github.com/oubenruing/svg-text-animate" style="vertical-align: text-top; ">
    <g id="svgGroup" stroke-linecap="round" stroke="#000" fill="none" style="fill: rgb(0, 0, 0); stroke: rgb(255,255,255); stroke-width: 1px;">
      <path d="M19.92 62.42L19.92 62.42L22.03 61.34Q22.58 61.34 22.58 61.88L22.58 61.88Q22.58 63.85 20.06 65.55L20.06 65.55Q17.88 67.05 15.37 67.46L15.37 67.46Q13.46 67.73 12.72 67.73L12.72 67.73L10.61 67.12Q9.38 66.84 8.50 66.44L8.50 66.44L4.49 64.53Q3.20 63.72 3.20 61.88L3.20 61.88Q3.20 60.32 3.47 59.50L3.47 59.50Q3.20 59.50 3.20 58.96L3.20 58.96Q4.01 58.14 4.01 56.03L4.01 56.03L4.76 54.74Q5.24 50.93 7.28 48.48L7.28 48.48Q9.32 45.97 10.34 45.42L10.34 45.42L10.88 45.42Q11.90 43.59 13.80 43.59L13.80 43.59L16.73 43.59L19.11 44.34L19.65 44.34L20.74 44.88Q22.03 45.76 22.03 46.78L22.03 46.78L22.03 48.08Q22.03 48.48 21.35 49.78L21.35 49.78Q20.74 51 20.20 51L20.20 51L19.11 52.43Q16.32 55.96 10.88 57.12L10.88 57.12L8.77 58.14Q7.68 58.14 6.94 58.96L6.94 58.96L7.41 61.34L8.23 62.97L9.04 63.24Q9.59 63.24 10.88 63.85L10.88 63.85Q12.31 64.53 13.53 64.53L13.53 64.53L14.08 64.53Q14.35 64.53 14.62 64.53L14.62 64.53Q15.78 63.92 19.92 62.42ZM10.34 50.46L10.34 50.46Q8.43 51.48 7.96 54.20L7.96 54.20Q8.23 54.81 8.23 55.42L8.23 55.42Q8.43 55.28 8.91 55.08L8.91 55.08Q9.45 55.01 9.86 54.74L9.86 54.74Q10.34 55.01 10.88 55.01L10.88 55.01Q12.38 54.13 12.99 53.38L12.99 53.38L14.35 51.82L15.64 51Q18.09 50.39 18.56 47.53L18.56 47.53Q18.22 46.31 18.09 45.97L18.09 45.97L16.46 45.70L14.35 46.51L12.72 47.80L11.56 48.82Q10.88 49.44 10.34 50.46Z" style="stroke-dasharray: 128, 130; stroke-dashoffset: 129;">
        <animate attributeName="stroke-dashoffset" to="0" dur="500ms" calcMode="linear" repeatCount="1" fill="freeze" begin="800ms"></animate>
      </path>
    </g>
  </svg>
  <svg width="270" height="76.432" viewBox="-113.576 0 200 77.432" xmlns="http://www.w3.org/2000/svg" data-copyright="https://github.com/oubenruing/svg-text-animate" style="vertical-align: text-top; ">
    <g id="svgGroup" stroke-linecap="round" stroke="#000" fill="none" style="fill: rgb(0, 0, 0); stroke: rgb(255,255,255); stroke-width: 1px;">
      <path d="M35.09 11.90L35.29 11.90L36.86 12.51Q37.81 13.94 38.83 13.94L38.83 13.94L38.96 14.01L38.83 14.48L38.83 14.96L39.44 16.32L39.44 16.80Q39.44 17.00 38.42 17.41L38.42 17.41L38.35 17.48L38.35 17.88Q38.96 17.88 39.17 19.86L39.17 19.86Q39.44 19.86 39.51 20.54L39.51 20.54Q38.83 22.64 36.65 24.28L36.65 24.28Q35.09 25.43 34.61 25.43L34.61 25.43L33.80 25.43L33.12 25.84L33.12 26.18Q33.32 27.00 34.20 27.74L34.20 27.74Q34.48 27.74 34.48 28.22L34.48 28.22L34.54 28.29L34.75 28.29Q34.75 28.02 34.95 28.02L34.95 28.02L35.22 28.02Q35.56 28.02 35.77 29.10L35.77 29.10L35.77 29.31Q35.77 30.40 34.54 31.42L34.54 31.42Q32.44 32.37 31.55 32.57L31.55 32.57L31.35 32.57L30.60 32.44Q30.60 32.84 30.46 32.84L30.46 32.84L29.99 32.78L29.78 33.05Q29.78 34.14 31.69 34.14L31.69 34.14L35.16 36.45Q35.77 36.86 35.77 38.22L35.77 38.22Q34.61 40.19 32.71 40.19L32.71 40.19Q31.76 40.66 31.55 40.66L31.55 40.66L31.21 40.66Q30.94 40.66 30.94 40.39L30.94 40.39L30.80 40.32L30.60 40.32Q30.46 40.32 29.99 41.28L29.99 41.28Q28.56 41.28 28.02 42.30L28.02 42.30Q27.74 42.30 27.40 43.11L27.40 43.11Q26.45 43.72 25.36 44.20L25.36 44.20Q25.36 44.74 23.39 46.58L23.39 46.58Q23.12 46.99 21.76 47.80L21.76 47.80L21.76 48.21Q21.90 48.62 22.51 48.62L22.51 48.62Q26.04 47.67 26.32 47.19L26.32 47.19L27.61 46.99Q28.36 47.12 28.36 47.60L28.36 47.60L28.56 47.80L28.83 47.80L28.90 47.53L28.49 46.72L28.56 46.58Q29.72 47.26 29.92 47.26L29.92 47.26L29.99 47.19L29.99 46.92Q29.78 46.44 28.36 45.90L28.36 45.90L28.02 44.88L28.02 44.81L28.42 44.40Q27.68 43.86 27.68 43.18L27.68 43.18Q28.42 42.77 28.70 42.77L28.70 42.77L29.04 42.77Q29.58 42.77 31.21 44.00L31.21 44.00Q31.62 44.00 32.57 45.76L32.57 45.76L32.71 45.76L34.14 45.63L34.75 45.83Q35.02 45.56 35.50 45.56L35.50 45.56L35.56 45.56L36.65 45.90Q37.26 45.90 37.26 46.10L37.26 46.10Q37.26 46.24 36.65 46.44L36.65 46.44Q36.65 46.99 38.08 47.60L38.08 47.60L38.08 48.35L37.81 49.23L38.08 49.91L38.08 50.05Q37.26 51 34.75 51.75L34.75 51.75L32.44 52.63L32.30 52.63L31.96 52.43L31.76 52.63L31.76 52.77L32.30 53.18L32.30 53.45L31.96 53.86Q32.37 56.24 32.78 56.44L32.78 56.44Q35.22 56.98 37.13 57.94L37.13 57.94L37.33 57.94L37.40 57.87L37.81 59.09Q38.01 59.09 38.83 61.06L38.83 61.06Q38.28 61.95 37.40 61.95L37.40 61.95L37.33 61.81L37.26 61.81L35.56 62.22L33.12 61.95Q32.78 61.95 32.71 62.63L32.71 62.63L32.57 62.63Q32.37 62.36 31.96 62.36L31.96 62.36Q31.96 63.58 32.84 63.58L32.84 63.58Q33.32 64.94 33.32 65.48L33.32 65.48Q33.32 66.16 32.16 66.91L32.16 66.91L24.07 65.48Q23.46 65.48 21.90 64.26L21.90 64.26Q21.28 64.26 21.08 63.72L21.08 63.72L21.08 62.83L21.28 62.70L23.46 62.70Q26.04 62.22 27.47 61.27L27.47 61.27L27.47 60.38Q27.74 59.84 27.74 58.55L27.74 58.55L27.74 58.00L27.68 57.66L27.95 56.85L27.61 55.83L27.74 55.22L27.74 54.54L28.49 53.86L28.49 53.52Q28.49 53.38 27.81 53.18L27.81 53.18Q27.40 53.65 26.04 54.06L26.04 54.06L23.94 54.06Q22.30 54.54 20.26 54.54L20.26 54.54Q19.65 54.54 17.95 53.92L17.95 53.92Q17.27 53.92 16.86 51.82L16.86 51.82L16.86 51.41Q16.86 50.80 17.07 50.80L17.07 50.80L16.86 50.25Q16.86 49.64 19.38 47.60L19.38 47.60L21.28 45.63Q21.28 44.95 24.14 42.57L24.14 42.57Q24.28 41.68 24.62 41.68L24.62 41.68L25.57 41.75L25.84 41.28L25.84 41.00Q25.23 40.39 25.23 39.98L25.23 39.98L25.23 39.64L24.62 39.64Q24.07 39.64 24.07 37.13L24.07 37.13L23.94 37.13L23.94 36.92Q23.94 35.56 24.89 34.07L24.89 34.07L25.57 32.64L24.55 31.01L24.62 30.67L24.55 29.78Q24.55 28.76 25.64 28.56L25.64 28.56Q25.84 27.74 26.79 27.54L26.79 27.54Q26.79 27.13 28.15 26.04L28.15 26.04Q28.15 25.84 29.92 25.23L29.92 25.23Q30.60 24.55 32.03 23.94L32.03 23.94Q32.03 23.39 33.39 22.64L33.39 22.64L34.88 21.01L34.88 20.94L34.48 19.99L34.20 19.99Q33.66 20.54 31.76 21.22L31.76 21.22Q30.33 21.90 29.99 22.58L29.99 22.58Q28.90 22.98 28.42 22.98L28.42 22.98Q27.47 23.19 26.72 24.00L26.72 24.00Q26.32 24.00 25.57 24.75L25.57 24.75Q25.02 24.75 24.48 25.36L24.48 25.36Q23.39 25.36 23.39 26.04L23.39 26.04L20.94 27.47Q19.79 28.29 15.37 30.87L15.37 30.87Q15.37 31.01 14.55 31.08L14.55 31.08Q10.88 33.52 7.48 34.75L7.48 34.75L6.73 34.68L3.94 34.75L2.52 34.75Q0.88 34.75 0.88 34.41L0.88 34.41L0.82 33.39Q0.82 32.98 2.52 31.96L2.52 31.96L2.65 31.76L2.86 31.76L3.20 32.03L3.26 32.03Q5.37 31.28 5.85 30.87L5.85 30.87Q12.38 27.47 12.58 27.40L12.58 27.40Q13.40 26.79 16.73 25.77L16.73 25.77Q18.56 25.09 19.11 24.68L19.11 24.68L20.74 23.80L20.88 23.80Q20.88 24.34 21.08 24.34L21.08 24.34L21.28 24.34Q21.69 24.34 23.53 23.32L23.53 23.32Q26.45 22.03 29.58 21.15L29.58 21.15Q29.58 20.81 31.01 20.60L31.01 20.60Q32.57 19.86 33.73 18.97L33.73 18.97Q34.20 18.97 34.20 18.77L34.20 18.77L34.20 18.09Q33.73 17.48 33.39 17.48L33.39 17.48Q33.12 17.82 33.12 18.29L33.12 18.29L32.44 18.22Q32.44 18.77 31.35 18.77L31.35 18.77Q28.22 20.13 26.93 20.13L26.93 20.13L26.11 19.99Q26.11 20.26 24.55 20.60L24.55 20.60L24.14 20.60L24.14 20.47Q25.70 19.79 26.38 19.31L26.38 19.31L28.56 18.29L28.83 17.68Q27.34 16.80 26.93 16.39L26.93 16.39L26.72 16.39Q26.25 16.73 26.04 16.73L26.04 16.73L26.04 16.59L25.91 16.73L25.70 16.73Q25.30 16.73 25.30 15.64L25.30 15.64Q25.50 14.55 26.25 14.55L26.25 14.55Q26.25 14.35 27.34 14.35L27.34 14.35L28.42 14.55Q29.44 14.28 31.28 13.33L31.28 13.33Q32.64 12.99 35.09 11.90L35.09 11.90ZM53.38 15.10L53.38 14.62L53.58 14.62Q54.88 15.30 55.62 16.73L55.62 16.73Q57.39 17.34 57.39 18.50L57.39 18.50Q56.98 19.65 55.01 21.22L55.01 21.22Q52.77 22.51 50.66 23.39L50.66 23.39L48.89 25.50Q48.42 25.50 48.14 26.18L48.14 26.18Q45.76 28.15 45.76 28.83L45.76 28.83Q47.33 30.94 47.33 31.08L47.33 31.08Q47.53 33.73 47.87 33.73L47.87 33.73Q49.64 33.73 51.14 33.05L51.14 33.05L55.35 31.55L55.42 31.55L55.76 31.69Q56.58 31.42 56.58 30.87L56.58 30.87L56.44 30.67L56.51 30.53L56.58 30.53L56.64 30.67L56.64 30.74Q56.78 30.74 58.21 29.31L58.21 29.31L60.25 28.49L60.66 28.49L61.00 28.56L61.47 28.49Q64.33 28.49 65.21 29.10L65.21 29.10L65.89 28.97Q66.91 29.51 67.18 30.06L67.18 30.06L66.71 30.74L66.78 31.48L66.71 31.89L67.18 32.57Q67.18 32.84 65.48 33.05L65.48 33.05Q63.99 33.66 63.10 34.41L63.10 34.41L62.08 34.68L61.54 34.68L61.27 34.48L60.32 34.48Q59.70 34.48 59.36 33.86L59.36 33.86Q58.55 34.14 58.34 34.14L58.34 34.14L58.34 34.48L58.96 34.68L58.89 35.16Q58.89 35.43 60.25 36.38L60.25 36.38L60.38 37.40L59.98 37.94L60.04 38.56Q59.98 38.83 59.84 39.03L59.84 39.03L59.57 39.03L59.36 38.90L59.30 38.90L59.02 39.03L59.02 39.58Q59.43 39.58 59.84 40.39L59.84 40.39Q59.64 45.90 59.36 45.90L59.36 45.90L59.43 47.12L59.43 48.08L59.36 48.48L59.57 51.34Q59.50 51.88 59.43 52.36L59.43 52.36L59.50 53.38L59.50 54.54L59.57 55.15Q59.36 55.56 59.36 58.00L59.36 58.00Q59.36 61.00 59.98 64.26L59.98 64.26L59.91 64.80L59.98 66.23Q59.98 66.98 59.02 70.45L59.02 70.45Q58.75 70.45 58.34 72.83L58.34 72.83L57.53 75.21Q57.26 75.21 57.19 76.36L57.19 76.36L57.12 76.43L57.05 76.43Q56.78 76.36 56.64 74.60L56.64 74.60L56.71 74.60L56.30 71.40L56.44 70.45L56.30 69.70L56.44 69.16Q55.90 64.19 55.76 63.04L55.76 63.04L56.30 62.36L56.30 62.22Q55.62 61.54 55.62 60.11L55.62 60.11L55.90 59.50Q55.62 59.02 55.62 58.00L55.62 58.00L55.62 56.71L55.69 55.83L55.62 55.28L55.69 54.40L55.62 53.52L55.69 49.23Q55.42 48.69 55.42 48.28L55.42 48.28Q55.42 47.74 56.03 46.51L56.03 46.51Q55.15 46.51 55.15 45.08L55.15 45.08L55.42 43.72L55.42 43.11L55.62 43.11Q55.62 43.38 55.76 43.38L55.76 43.38Q55.96 43.38 56.10 42.16L56.10 42.16Q55.83 42.02 55.42 42.02L55.42 42.02L55.42 41.41L55.76 40.73L55.69 40.05L55.69 36.45L55.49 36.24L53.99 36.58L53.86 36.38Q52.90 36.92 52.02 37.13L52.02 37.13Q49.03 37.13 48.48 35.50L48.48 35.50Q47.94 35.02 47.74 35.02L47.74 35.02Q47.60 35.09 47.46 36.24L47.46 36.24L47.60 36.86Q47.19 37.33 46.78 46.72L46.78 46.72Q46.58 46.72 46.17 51.27L46.17 51.27Q45.76 51.48 45.76 52.22L45.76 52.22L45.76 53.18Q45.08 55.83 44.40 56.85L44.40 56.85Q41.89 59.91 41.00 60.66L41.00 60.66L40.60 60.59L40.53 60.59L40.53 60.66Q40.53 60.86 40.80 60.86L40.80 60.86L40.80 61.13L40.26 61.68L40.19 61.54L40.26 61.47L40.26 61.40L40.12 61.13L40.05 61.13L39.64 61.40L39.51 61.27L39.51 61.13L39.64 61.06L39.64 61.00L39.51 60.86Q39.98 57.94 41.28 55.83L41.28 55.83L41.96 52.77L42.70 50.73L42.91 50.66L42.91 49.64Q42.91 48.89 43.79 48.01L43.79 48.01L43.79 47.80L43.45 47.26Q43.93 45.15 44.34 41.62L44.34 41.62Q44.47 41.62 44.47 41.07L44.47 41.07L44.47 39.98L44.95 36.92L44.74 34.07L45.02 32.57Q44.81 32.23 44.74 30.94L44.74 30.94L44.88 30.87L44.88 30.74L44.68 29.58Q44.88 27.47 45.36 26.86L45.36 26.86Q45.76 26.45 46.78 24.96L46.78 24.96Q46.92 24.82 48.96 22.64L48.96 22.64Q52.22 19.79 53.38 15.10L53.38 15.10ZM29.10 17.27L28.90 17.41L28.90 17.68L29.10 17.68L29.24 17.41L29.24 17.27L29.10 17.27ZM24.14 56.58L26.11 56.17L26.25 56.24L26.25 56.30Q24.89 56.92 23.73 58.28L23.73 58.28Q22.98 58.28 21.76 60.11L21.76 60.11Q21.42 60.11 19.58 62.63L19.58 62.63Q17.88 65.21 16.12 66.30L16.12 66.30Q16.12 66.71 14.01 67.93L14.01 67.93Q12.78 67.93 11.76 65.35L11.76 65.35Q11.76 64.19 10.95 63.38L10.95 63.38L10.95 63.24Q11.15 62.22 11.42 62.22L11.42 62.22L12.85 62.22Q13.87 62.22 16.32 61.00L16.32 61.00Q16.86 60.25 19.58 58.75L19.58 58.75Q20.88 57.60 24.14 56.58L24.14 56.58Z" style="stroke-dasharray: 606, 608; stroke-dashoffset: 607;">
        <animate attributeName="stroke-dashoffset" to="0" dur="500ms" calcMode="linear" repeatCount="1" fill="freeze" begin="1000ms"></animate>
      </path>
    </g>
  </svg>
  <svg width="270" height="73.168" viewBox="-178.18400000000001 0 200 74.168" xmlns="http://www.w3.org/2000/svg" data-copyright="https://github.com/oubenruing/svg-text-animate" style="vertical-align: text-top; ">
    <g id="svgGroup" stroke-linecap="round" stroke="#000" fill="none" style="fill: rgb(0, 0, 0); stroke: rgb(255,255,255); stroke-width: 1px;">
      <path d="M20.60 22.71L20.88 22.64L21.90 22.64Q22.64 22.85 23.87 23.05L23.87 23.05Q23.87 23.19 25.30 23.94L25.30 23.94Q25.30 24.21 26.04 24.55L26.04 24.55L27.13 26.52L27.13 27.06L26.86 27.47L26.86 28.70Q26.86 28.97 24.28 29.38L24.28 29.38Q24.00 29.65 23.60 29.65L23.60 29.65L23.26 29.51L22.98 29.65Q22.17 29.65 21.69 29.17L21.69 29.17L21.22 29.17L21.01 29.38L20.94 29.38Q19.99 28.22 19.38 28.02L19.38 28.02Q19.38 27.54 19.18 27.54L19.18 27.54L18.70 27.27Q18.16 27.27 17.75 26.45L17.75 26.45L17.75 26.38Q18.09 26.38 18.09 26.25L18.09 26.25L18.09 26.11L17.75 25.84L17.75 26.04Q17.34 26.25 17.34 26.45L17.34 26.45L17.27 26.45Q17.07 26.45 17.07 26.25L17.07 26.25L16.59 26.25Q16.12 25.98 16.12 25.77L16.12 25.77L16.12 25.57Q16.12 25.23 16.86 25.23L16.86 25.23Q16.86 24.75 18.43 24.00L18.43 24.00L18.70 24.07L19.38 23.12L20.26 22.71L20.60 22.78L20.60 22.71ZM22.30 59.36L22.44 59.36Q22.44 57.94 24.48 57.53L24.48 57.53Q25.09 57.53 27.13 56.51L27.13 56.51L27.13 55.42Q26.45 52.43 26.45 50.59L26.45 50.59L26.45 48.42Q26.66 46.65 27.61 44.00L27.61 44.00L27.88 42.43L27.88 42.30Q27.88 41.21 26.32 41.21L26.32 41.21L23.87 41.41Q22.92 41.41 22.30 40.66L22.30 40.66L22.30 40.53Q22.30 39.37 25.09 38.35L25.09 38.35Q26.59 37.81 27.88 36.72L27.88 36.72Q29.44 36.18 31.08 35.97L31.08 35.97Q32.98 34.88 35.63 33.93L35.63 33.93L35.63 33.86L36.31 33.93L36.65 33.93Q37.88 33.93 41.07 31.76L41.07 31.76L42.57 31.35L42.91 31.35Q43.66 31.69 45.02 32.84L45.02 32.84L45.08 32.91L45.08 34.34Q44.88 35.22 44.13 35.22L44.13 35.22L43.52 35.22Q42.02 35.22 41.48 35.84L41.48 35.84Q40.73 35.90 40.73 36.24L40.73 36.24Q40.73 40.39 39.98 41.28L39.98 41.28L39.78 42.98L39.85 43.32L39.78 43.32L40.60 45.97L40.60 46.51L40.53 47.40L41.07 48.89L41.07 48.96Q40.53 49.84 40.53 51.20L40.53 51.20Q40.53 53.45 40.80 54.81L40.80 54.81L40.60 56.24L40.60 56.37L40.80 58.14L40.73 58.55Q40.73 59.98 41.07 61.47L41.07 61.47L41.00 63.44L41.28 66.23L41.14 69.22L41.48 70.65Q41.34 71.06 40.12 71.81L40.12 71.81Q39.71 73.03 39.17 73.17L39.17 73.17L38.62 73.17Q38.22 73.17 38.22 71.81L38.22 71.81Q37.54 71.26 37.33 65.55L37.33 65.55Q36.92 63.31 36.92 61.06L36.92 61.06L36.58 59.50L36.65 58.55L36.65 56.37Q36.45 53.58 35.84 53.58L35.84 53.58L35.77 53.58Q32.50 55.35 32.03 55.96L32.03 55.96Q30.80 57.60 29.99 57.60L29.99 57.60Q27.47 58.75 25.91 59.91L25.91 59.91Q24.07 60.72 23.12 60.72L23.12 60.72Q22.44 60.32 22.44 59.91L22.44 59.91L22.37 59.91L22.30 59.36ZM31.01 41.82L30.94 42.23Q31.08 43.04 31.69 43.04L31.69 43.04Q32.71 42.30 34.07 41.89L34.07 41.89L34.07 42.02L34.34 41.89Q34.88 41.89 35.56 42.30L35.56 42.30Q35.97 42.30 36.38 41.55L36.38 41.55Q36.38 39.71 35.63 39.71L35.63 39.71Q34.27 39.71 32.64 40.53L32.64 40.53Q31.28 40.53 31.01 41.82L31.01 41.82ZM29.99 47.40L29.99 47.40L29.99 47.46L30.40 47.87L30.67 47.87Q31.08 47.87 33.59 46.04L33.59 46.04L35.16 45.70L35.77 45.76Q36.72 45.76 36.72 45.02L36.72 45.02Q36.65 43.66 36.38 43.66L36.38 43.66L36.18 43.66L33.93 44.95Q32.10 45.56 30.40 45.76L30.40 45.76Q29.99 46.17 29.99 47.40ZM35.50 49.50L34.07 49.98L33.18 49.84Q30.12 50.25 30.12 50.46L30.12 50.46L29.99 50.66L30.06 50.86L30.06 51.27Q30.06 53.92 30.67 53.92L30.67 53.92Q30.67 54.06 31.08 54.06L31.08 54.06Q31.69 54.06 33.73 52.63L33.73 52.63Q36.38 51.34 36.38 50.52L36.38 50.52Q36.18 49.50 35.84 49.50L35.84 49.50L35.50 49.50ZM55.22 49.50L55.22 49.64Q55.42 49.84 55.42 50.59L55.42 50.59Q55.35 50.86 55.22 51.14L55.22 51.14Q55.35 51.14 55.56 52.29L55.56 52.29L55.42 52.36L55.62 54.13L55.56 54.33Q55.62 54.54 55.62 54.74L55.62 54.74L55.56 54.81Q55.76 56.17 55.96 56.78L55.96 56.78L55.83 56.92Q56.03 57.66 56.03 57.80L56.03 57.80L55.96 58.14L56.03 58.68L55.96 58.82L56.24 59.98L56.10 60.18Q56.30 60.52 56.44 60.52L56.44 60.52L56.30 61.00L56.44 61.40L56.30 61.61Q56.37 62.29 56.64 62.63L56.64 62.63Q56.44 63.04 56.44 63.38L56.44 63.38Q56.64 63.38 56.85 64.74L56.85 64.74Q56.64 64.74 56.64 64.94L56.64 64.94L56.71 65.08Q56.44 65.08 56.44 65.28L56.44 65.28L56.51 65.55Q56.44 65.69 56.44 65.89L56.44 65.89L56.51 66.03L56.44 66.57L56.51 66.71L56.44 67.25L56.51 67.52L56.10 67.93L56.30 68.20Q55.96 68.82 55.76 69.97L55.76 69.97Q55.35 69.97 55.35 70.58L55.35 70.58Q54.81 70.92 54.81 71.20L54.81 71.20Q54.67 71.20 53.86 72.08L53.86 72.08Q53.18 72.35 52.56 72.42L52.56 72.42L52.09 72.35L51.88 72.35L51.20 72.42L51.00 72.28L50.93 72.28Q50.73 72.35 50.52 72.42L50.52 72.42Q50.46 72.42 49.91 72.08L49.91 72.08L49.78 72.28L49.03 71.74Q49.03 71.94 48.82 71.94L48.82 71.94Q48.21 71.94 47.46 70.99L47.46 70.99Q46.72 70.52 45.22 70.11L45.22 70.11L45.22 69.97L45.02 70.11Q43.79 69.90 43.79 69.70L43.79 69.70L43.52 69.77Q43.25 69.77 42.91 69.70L42.91 69.70L42.64 69.77Q41.75 69.36 41.75 69.22L41.75 69.22L41.75 69.09L42.43 68.88L42.84 69.09Q42.84 68.82 44.20 68.41L44.20 68.41L44.40 68.54L45.22 68.20L45.49 68.20Q50.25 67.18 50.25 66.16L50.25 66.16L50.39 65.76L50.12 65.55L50.39 65.14L50.39 64.87L50.12 64.46Q50.12 64.33 50.25 64.19L50.25 64.19L50.12 63.72Q50.25 63.44 50.25 63.38L50.25 63.38L50.12 63.10L50.25 62.83L50.12 62.63Q50.25 62.49 50.25 62.29L50.25 62.29Q50.18 62.15 50.12 62.02L50.12 62.02L50.25 61.81L50.12 61.34L50.25 61.20Q50.05 59.57 50.05 57.12L50.05 57.12Q50.05 56.64 50.12 56.10L50.12 56.10L50.05 55.90L50.12 55.49Q50.12 54.88 50.05 54.26L50.05 54.26Q50.05 53.79 50.12 52.97L50.12 52.97Q50.05 52.56 50.05 52.16L50.05 52.16L50.05 50.73Q50.05 50.52 49.84 49.91L49.84 49.91Q50.05 49.50 50.05 49.30L50.05 49.30L50.05 48.76Q50.05 48.48 49.84 48.14L49.84 48.14L50.05 47.74Q49.91 47.67 49.91 47.40L49.91 47.40L50.05 47.12L50.12 47.12L50.05 46.65L50.05 46.44Q50.05 46.17 50.25 45.56L50.25 45.56Q50.05 44.88 50.05 44.68L50.05 44.68L50.12 44.47L50.05 44.27L50.25 43.32Q50.18 42.91 50.05 42.50L50.05 42.50Q50.05 42.23 50.12 42.02L50.12 42.02L50.80 34.75L50.73 34.27Q51.00 33.05 51.00 32.16L51.00 32.16L51.00 32.10L51.07 31.96L51.00 31.76L51.00 31.62Q51.00 30.87 51.20 30.87L51.20 30.87L51.07 30.60Q51.07 30.33 51.27 29.31L51.27 29.31L51.20 28.83L51.27 28.42Q51.20 28.29 51.20 27.68L51.20 27.68L51.27 27.54L51.20 27.06L51.27 26.93Q51.20 26.79 51.20 26.59L51.20 26.59L51.48 26.11Q51.27 24.89 51.27 24.75L51.27 24.75Q51.41 24.48 51.41 24.41L51.41 24.41Q51.20 24.41 51.20 24.21L51.20 24.21L51.27 23.87L51.20 23.66L51.27 23.39L51.20 22.85Q51.34 22.51 51.48 22.17L51.48 22.17Q51.20 22.10 51.20 21.56L51.20 21.56L50.80 21.56Q50.59 21.83 49.64 22.24L49.64 22.24L49.23 22.51L49.16 22.51L49.10 22.44L48.96 22.51Q49.03 22.64 46.51 23.94L46.51 23.94Q46.24 24.14 45.42 24.55L45.42 24.55L44.00 25.64L43.11 26.45L42.50 26.45Q42.57 26.59 40.46 27.61L40.46 27.61L38.96 28.08L37.67 28.02L37.60 28.22Q36.52 28.22 34.61 27.27L34.61 27.27Q32.57 27.40 32.57 26.72L32.57 26.72Q32.16 26.72 31.96 26.45L31.96 26.45L31.89 25.57Q31.89 25.09 32.78 24.68L32.78 24.68Q32.91 24.07 34.14 23.53L34.14 23.53L34.34 23.53L34.41 23.87Q34.14 24.48 33.93 24.48L33.93 24.48L33.93 24.62L34 24.62L34 24.55L34.14 24.62L35.22 24.48L35.56 24.62Q35.70 24.34 35.77 24.07L35.77 24.07Q36.99 23.73 37.74 23.19L37.74 23.19L37.74 23.12L38.15 23.05Q38.76 22.51 39.64 22.37L39.64 22.37Q39.64 22.03 41.68 21.35L41.68 21.35Q41.68 21.28 42.98 20.88L42.98 20.88L43.38 20.60L43.45 20.54L43.72 20.67L44.00 20.13L44.06 20.13L44.27 20.26L44.47 20.20Q45.02 19.79 46.38 19.38L46.38 19.38Q48.14 18.29 49.84 17.14L49.84 17.14L50.05 17.14L50.25 17.20Q50.25 16.93 51.68 16.59L51.68 16.59Q51.68 16.32 52.16 16.12L52.16 16.12L52.36 16.18L54.13 15.10L54.54 15.30Q54.88 15.10 55.01 15.10L55.01 15.10Q55.01 15.30 55.22 15.30L55.22 15.30Q55.22 15.10 55.42 15.10L55.42 15.10Q55.83 15.10 55.83 15.30L55.83 15.30L56.03 15.23Q57.53 15.44 57.53 16.12L57.53 16.12Q57.66 16.12 57.66 16.59L57.66 16.59L57.60 16.73L57.66 16.80L57.60 17.48L57.60 17.88L57.80 18.16Q57.80 18.70 56.30 20.54L56.30 20.54L55.96 22.44L56.10 22.64Q55.96 22.78 55.96 23.12L55.96 23.12L56.10 23.19L55.96 23.60L56.03 23.80Q55.96 23.87 55.96 24.21L55.96 24.21L56.10 24.41Q55.96 24.82 55.96 25.16L55.96 25.16L56.10 25.70L55.96 26.04L56.03 26.66L55.96 26.66L56.03 26.86L56.03 26.93Q56.03 27.13 55.96 27.34L55.96 27.34L56.03 27.54Q55.76 28.29 55.76 28.83L55.76 28.83L55.83 29.10Q55.76 29.24 55.76 29.44L55.76 29.44L55.83 29.72Q55.69 29.72 55.56 30.12L55.56 30.12Q55.62 30.33 55.62 30.46L55.62 30.46L55.42 30.80L55.56 31.28Q55.42 31.42 55.42 31.62L55.42 31.62Q55.56 31.76 55.56 31.89L55.56 31.89L55.42 31.96L55.56 32.64L55.56 32.98Q55.56 33.18 55.42 33.46L55.42 33.46Q55.56 33.73 55.56 34.07L55.56 34.07L55.42 35.22L55.56 35.43Q55.22 36.11 55.22 36.31L55.22 36.31L55.35 36.52Q55.15 36.52 55.15 36.72L55.15 36.72L55.22 37.13Q54.94 38.01 54.94 38.35L54.94 38.35L55.01 38.56L54.81 38.96L54.94 39.24L54.81 39.64Q55.01 39.64 55.01 39.85L55.01 39.85Q55.01 40.39 54.94 40.87L54.94 40.87L55.15 41.62L54.94 42.02Q55.15 42.84 55.15 43.04L55.15 43.04L55.01 43.18L55.15 43.38Q55.08 43.59 55.01 43.79L55.01 43.79L55.15 44.27L55.01 44.47L55.15 44.54L55.01 45.22L55.01 45.56Q55.22 45.56 55.22 45.76L55.22 45.76L55.15 45.97L55.15 46.04L55.01 46.24L55.08 46.31L55.15 46.44L55.15 46.58L55.08 46.99Q55.15 47.26 55.22 47.53L55.22 47.53L55.15 47.80L55.22 48.28Q55.15 48.69 55.01 48.89L55.01 48.89Q55.15 49.10 55.22 49.50L55.22 49.50ZM15.98 46.51L15.98 46.51L15.98 47.87Q15.98 48.21 16.05 48.42L16.05 48.42L15.91 48.69Q15.91 50.18 16.25 51.41L16.25 51.41L15.98 54.40Q16.46 54.88 16.52 56.85L16.52 56.85Q16.39 56.98 16.39 57.32L16.39 57.32L16.39 59.98Q16.39 60.38 16.59 61.00L16.59 61.00L16.52 61.06L16.59 61.47L16.59 62.36Q17.82 67.18 18.63 67.18L18.63 67.18Q18.77 67.86 18.90 68.54L18.90 68.54L18.90 69.43L19.04 69.84Q17.14 71.54 16.73 71.54L16.73 71.54L16.25 71.54Q15.23 71.54 14.21 69.77L14.21 69.77Q14.21 69.56 13.67 68.88L13.67 68.88L13.74 68.61L13.53 68L13.67 67.80Q13.33 66.64 13.33 66.57L13.33 66.57L13.33 66.37Q13.33 66.10 13.40 65.96L13.40 65.96L13.12 64.40L13.19 63.99L13.12 63.58Q13.33 63.58 13.33 63.38L13.33 63.38Q13.33 63.10 13.12 62.70L13.12 62.70L13.19 62.29L13.12 62.08L13.19 61.88L13.06 61.40L13.12 61.20L13.06 60.86L13.12 60.32L12.92 60.18Q13.12 60.18 13.12 59.98L13.12 59.98Q12.85 59.36 12.85 59.16L12.85 59.16L13.06 58.75L13.06 58.48L13.12 58.48L13.12 58.28L12.92 58.00L13.06 57.80L12.85 57.46Q13.12 57.46 13.12 57.05L13.12 57.05Q12.85 56.71 12.85 56.17L12.85 56.17L12.85 55.96Q12.85 55.76 13.06 55.42L13.06 55.42Q12.85 55.15 12.85 55.01L12.85 55.01Q12.92 55.01 13.33 54.40L13.33 54.40Q13.06 54.40 13.06 53.92L13.06 53.92Q13.06 53.72 13.12 53.58L13.12 53.58L13.06 53.04Q13.12 51.95 13.12 50.80L13.12 50.80L13.12 50.46L12.99 50.46L13.12 50.05Q13.06 49.71 13.06 49.44L13.06 49.44L13.12 49.16L13.12 48.62Q13.12 48.35 13.19 48.21L13.19 48.21L13.12 47.94L13.26 47.74L13.19 47.67L13.06 47.46L13.26 47.12L13.12 46.92L13.26 46.78L13.12 46.10L13.26 45.90L13.12 45.76L13.26 45.22L13.19 44.95L13.33 44.81L13.19 44.61L13.33 44.47L13.19 44.00L13.33 43.86L13.19 43.32L13.33 43.18Q13.40 42.77 13.40 42.23L13.40 42.23Q13.33 41.96 13.26 41.68L13.26 41.68L13.40 41.62L13.33 41.28L13.40 40.87L13.33 40.80Q13.40 40.66 13.60 40.66L13.60 40.66Q13.33 40.19 13.33 40.05L13.33 40.05L13.40 39.64L13.33 39.37L13.40 39.17L13.26 38.83L13.40 38.62Q13.40 37.60 12.24 36.24L12.24 36.24L12.38 36.04Q12.17 35.77 12.17 35.50L12.17 35.50L12.17 35.16Q12.58 33.39 13.33 33.25L13.33 33.25Q13.33 32.71 14.55 32.50L14.55 32.50L14.76 32.78L14.96 32.71L15.30 32.91L15.10 33.25Q15.44 33.25 16.12 34.34L16.12 34.34L16.25 34.54L16.12 34.68Q16.25 34.68 16.32 35.90L16.32 35.90Q16.12 35.97 15.91 36.04L15.91 36.04L15.98 36.24Q15.91 36.38 15.91 36.65L15.91 36.65L15.98 36.86L15.91 37.13L15.98 37.47Q15.64 38.56 15.64 39.30L15.64 39.30Q15.78 40.12 15.98 40.26L15.98 40.26L16.32 44.95Q16.05 45.22 15.98 46.51Z" style="stroke-dasharray: 490, 492; stroke-dashoffset: 491;">
        <animate attributeName="stroke-dashoffset" to="0" dur="500ms" calcMode="linear" repeatCount="1" fill="freeze" begin="1200ms"></animate>
      </path>
    </g>
  </svg>
</svg>